<?xml version="1.0" encoding="UTF-8"?>
<svg xmlns="http://www.w3.org/2000/svg" version="1.1" viewBox="0 0 1200 900">
  <!-- Generator: Adobe Illustrator 30.1.0, SVG Export Plug-In . SVG Version: 2.1.1 Build 136)  -->
  <defs>
    <style>
      .st0 {
        fill: #2b3a43;
      }

      .st1 {
        fill: #07f5c4;
      }
    </style>
  </defs>
  <g id="Layer_1">
    <rect class="st0" y="0" width="1200" height="900"/>
  </g>
  <g id="Layer_2">
    <g id="mk_x5F_logo">
      <path class="st1" d="M608.5,453.6v64h-46.4v-56c0-14-5.1-19.3-12.5-19.3s-14.6,5.5-14.6,20.5v54.8h-46.4v-56c0-14-4.7-19.3-12.5-19.3s-14.6,5.5-14.6,20.5v54.8h-46.4v-112.3h44.1v10.5c8.4-8.4,19.5-12.5,31.8-12.5s27.3,5.3,35.1,17c9-10.9,22.2-17,37.6-17,25.4,0,44.7,15,44.7,50.3Z"/>
      <path class="st1" d="M682.4,483.2l-7.4,8v26.5h-46.4v-152.3h46.4v72.7l32.2-32.6h54.8l-46.4,48.6,50.1,63.6h-56l-27.3-34.5Z"/>
    </g>
  </g>
</svg>