<?xml version="1.0" encoding="utf-8"?>
<!-- Generator: Adobe Illustrator 28.0.0, SVG Export Plug-In . SVG Version: 6.00 Build 0)  -->
<svg version="1.1" id="fallback_x5F_img" xmlns="http://www.w3.org/2000/svg" xmlns:xlink="http://www.w3.org/1999/xlink" x="0px"
	 y="0px" viewBox="0 0 960 560" style="enable-background:new 0 0 960 560;" xml:space="preserve">
<style type="text/css">
	.st0{fill:#141F29;}
	.st1{fill:#28ADB7;}
</style>
<g id="background_00000072250569692086643630000017795972284318878910_">
	<rect x="0.5" y="0.5" class="st0" width="959" height="559"/>
	<path d="M959,1v558H1V1H959 M960,0H0v560h960V0L960,0z"/>
</g>
<g id="GH">
	<path class="st1" d="M675,292.98l-11.46-41.47c-12.92,3.55-26.12,6.64-39.55,9.22V132.01h-43v132.27
		c-17.37,1.93-35.06,3.11-53,3.53v-121.8h-43v124.06c-42.7-1.92-83.83-8.27-122.57-19l-11.4,41.47c12.46,3.43,25.11,6.47,37.97,9.07
		v84.76c0,0-5.2,11.81-31.88,11.81c-20.27,0-29.12-14.56-29.12-39.72v-144.9c0-26.59,10.06-41.58,29.57-41.58
		c25.13,0,29.43,19.57,29.43,36.52v1.52h43.59c0-32.68-10.19-72.6-72.35-72.6c-51.89,0.03-73.24,35.06-73.24,81.3v136.37
		c0,46.76,20.78,72.92,75.26,72.92c36.52,0,62.97-19.72,71.74-27.27v-91.13c17.37,2.23,35.06,3.69,53,4.46v74.95h43v-74.55
		c17.91-0.4,35.6-1.55,53-3.38v103.93h43V304.52c17.36-3.09,34.37-6.93,51.01-11.51"/>
</g>
</svg>
